<svg viewBox="0 0 91 91" xml:space="preserve" xmlns="http://www.w3.org/2000/svg" enable-background="new 0 0 91 91"><path d="M27.7 34.3c.9.8 2.4 1 3.3 0 2.6-2.8 1.2-7.4 1-10.9-.2-3.2.1-8-2.4-10.3-.6-.5-1.5-.6-2 0-2.4 2.5-1.7 7.1-1.7 10.3.1 3.4-1 8.3 1.8 10.9zM50.1 27.7c5.3.1 7.9 4.6 10.6 8.5 2.5 3.6 8.4.2 5.9-3.5-2.7-3.9-5.5-7.7-9.3-9.9 1.6-1 3.3-2 4.8-3.1 2.7-1.9 6.1-3.8 7.4-6.9.3-.8-.5-1.5-1.2-1.6-3.7-.3-7.7 2.5-10.8 4.2-3.4 1.8-7 3.7-9.8 6.5-2.1 2.1-.5 5.7 2.4 5.8zM74.6 47.3c-10.1-1-20.2-1.6-30.4-1.6-9.9 0-19.8.2-29.5 2.8-1.4.4-.9 2.2.3 2.3 3.5.4 6.9.5 10.4.6-.4 4.7-.1 9.5 1.1 14.1 1.7 6.7 5.9 11.1 12.4 13.5 6.7 2.5 15.9 1 20.8-4.4 5.5-6 5.7-14.2 5.4-21.9 3.1.3 6.3.5 9.4.9 4 .4 4-5.9.1-6.3zM54.9 69.7c-3.9 4.4-11.1 4.5-16 1.9-7.2-3.8-7.4-12.6-8-20.2h10c-.5 2.3-.7 4.6-.9 6.9-.3 2.8-.8 5 1.2 7.3 1.1 1.3 3.3 1.2 4.4 0 2.1-2.1 1.6-4.5 1.4-7.3-.1-2.3-.2-4.5-.6-6.8 3.8.1 7.6.3 11.4.5.8 6 1.2 13.1-2.9 17.7z" fill="#050505" class="fill-4e7a9e"></path></svg>